name rise30.2954peak35.7071fall66.7804.mot
datacolumns 19
datarows 17
range 23.41325300000000 23.43991300000000
endheader
time	ground_force1_vx	ground_force1_vy	ground_force1_vz	ground_force1_px	ground_force1_py	ground_force1_pz	ground_force2_vx	ground_force2_vy	ground_force2_vz	ground_force2_px	ground_force2_py	ground_force2_pz	ground_torque1_x	ground_torque1_y	ground_torque1_z	ground_torque2_x	ground_torque2_y	ground_torque2_z	
23.41325300000000	-37.35158800000000	805.61056499999995	53.08820100000000	0.06302400000000	0.00000000000000	0.10272600000000	0.00000000000000	0.00000000000000	0.00000000000000	0.00000000000000	0.00000000000000	0.00000000000000	0.00000000000000	16.82156100000000	0.00000000000000	0.00000000000000	0.00000000000000	0.00000000000000	
23.41491600000000	-38.04195600000000	804.65856599999995	52.96325000000000	0.06211800000000	0.00000000000000	0.10263300000000	0.00000000000000	0.00000000000000	0.00000000000000	0.00000000000000	0.00000000000000	0.00000000000000	0.00000000000000	16.80755800000000	0.00000000000000	0.00000000000000	0.00000000000000	0.00000000000000	
23.41658200000000	-38.75331200000000	803.60540000000003	52.82309500000000	0.06121000000000	0.00000000000000	0.10253700000000	0.00000000000000	0.00000000000000	0.00000000000000	0.00000000000000	0.00000000000000	0.00000000000000	0.00000000000000	16.79598900000000	0.00000000000000	0.00000000000000	0.00000000000000	0.00000000000000	
23.41825000000000	-39.48560600000000	802.44841099999996	52.66726600000000	0.06030100000000	0.00000000000000	0.10244000000000	-0.97785800000000	3.48627900000000	-0.05826900000000	0.00000000000000	0.00000000000000	0.00000000000000	0.00000000000000	16.78694000000000	0.00000000000000	0.00000000000000	-0.14212400000000	0.00000000000000	
23.41991300000000	-40.23869200000000	801.18483100000003	52.49530700000000	0.05939100000000	0.00000000000000	0.10234100000000	-1.54730400000000	7.03125100000000	-0.07253200000000	0.00000000000000	0.00000000000000	0.00000000000000	0.00000000000000	16.78047700000000	0.00000000000000	0.00000000000000	-0.21745800000000	0.00000000000000	
23.42157700000000	-41.01232800000000	799.81178699999998	52.30677600000000	0.05848100000000	0.00000000000000	0.10223900000000	-2.18653400000000	11.35709100000000	-0.08465800000000	0.00000000000000	0.00000000000000	0.00000000000000	0.00000000000000	16.77664900000000	0.00000000000000	0.00000000000000	-0.30059100000000	0.00000000000000	
23.42325800000000	-41.80617500000000	798.32629499999996	52.10124600000000	0.05757100000000	0.00000000000000	0.10213600000000	-2.87435700000000	16.42965000000000	-0.09320900000000	0.00000000000000	0.00000000000000	0.00000000000000	0.00000000000000	16.77549000000000	0.00000000000000	0.00000000000000	-0.38839400000000	0.00000000000000	
23.42492200000000	-42.61978900000000	796.72526400000004	51.87831000000000	0.05666100000000	0.00000000000000	0.10203100000000	-3.58458900000000	22.18161500000000	-0.09673600000000	0.00000000000000	0.00000000000000	0.00000000000000	0.00000000000000	16.77701200000000	0.00000000000000	0.00000000000000	-0.47712500000000	0.00000000000000	
23.42658200000000	-43.45262500000000	795.00550299999998	51.63758100000000	0.05575200000000	0.00000000000000	0.10192400000000	-4.28770600000000	28.51772300000000	-0.09389400000000	0.27204200000000	0.00000000000000	-0.08624200000000	0.00000000000000	16.78120800000000	0.00000000000000	0.00000000000000	-0.95799900000000	0.00000000000000	
23.42825100000000	-44.30403200000000	793.16371800000002	51.37869300000000	0.05484500000000	0.00000000000000	0.10181400000000	-4.95290900000000	35.32292800000000	-0.08355200000000	0.27813400000000	0.00000000000000	-0.08602200000000	0.00000000000000	16.78805300000000	0.00000000000000	0.00000000000000	-1.09015500000000	0.00000000000000	
23.42991800000000	-45.17325100000000	791.19651999999996	51.10130600000000	0.05394000000000	0.00000000000000	0.10170300000000	-5.55035100000000	42.47244500000000	-0.06490000000000	0.28349500000000	0.00000000000000	-0.08582300000000	0.00000000000000	16.79750100000000	0.00000000000000	0.00000000000000	-1.20248000000000	0.00000000000000	
23.43158000000000	-46.05941600000000	789.10043099999996	50.80510500000000	0.05303700000000	0.00000000000000	0.10158900000000	-6.05321900000000	49.84221600000000	-0.03752400000000	0.28825700000000	0.00000000000000	-0.08564300000000	0.00000000000000	16.80948400000000	0.00000000000000	0.00000000000000	-1.28911100000000	0.00000000000000	
23.43325000000000	-46.96155200000000	786.87188900000001	50.48980300000000	0.05213700000000	0.00000000000000	0.10147300000000	-6.43941100000000	57.31840300000000	-0.00145700000000	0.29252200000000	0.00000000000000	-0.08547900000000	0.00000000000000	16.82391400000000	0.00000000000000	0.00000000000000	-1.34548000000000	0.00000000000000	
23.43491100000000	-47.87857500000000	784.50725799999998	50.15514100000000	0.05124000000000	0.00000000000000	0.10135500000000	-6.69264400000000	64.80489500000000	0.04282400000000	0.29637200000000	0.00000000000000	-0.08532900000000	0.00000000000000	16.84068200000000	0.00000000000000	0.00000000000000	-1.36855100000000	0.00000000000000	
23.43658000000000	-48.80929400000000	782.00283300000001	49.80089500000000	0.05034800000000	0.00000000000000	0.10123500000000	-6.80294400000000	72.22826999999999	0.09441400000000	0.29986800000000	0.00000000000000	-0.08519100000000	0.00000000000000	16.85965800000000	0.00000000000000	0.00000000000000	-1.35689600000000	0.00000000000000	
23.43824500000000	-49.75240700000000	779.35485400000005	49.42687100000000	0.04946100000000	0.00000000000000	0.10111300000000	-6.76655300000000	79.54012299999999	0.15204200000000	0.30306200000000	0.00000000000000	-0.08506400000000	0.00000000000000	16.88068800000000	0.00000000000000	0.00000000000000	-1.31064200000000	0.00000000000000	
23.43991300000000	-50.70650600000000	776.55951300000004	49.03291100000000	0.04857800000000	0.00000000000000	0.10098900000000	-6.58534200000000	86.71694700000000	0.21414800000000	0.30599500000000	0.00000000000000	-0.08494800000000	0.00000000000000	16.90360000000000	0.00000000000000	0.00000000000000	-1.23128900000000	0.00000000000000	
